<svg xmlns="http://www.w3.org/2000/svg" width="1440" height="960" viewBox="0 0 1440 960">
  <rect width="1440" height="960" fill="#f6f8fb"/>
  <rect x="64" y="56" width="1312" height="848" rx="18" fill="#ffffff" stroke="#d9dee8"/>
  <text x="104" y="122" font-family="Arial, Helvetica, sans-serif" font-size="34" font-weight="700" fill="#172033">Model Audit Checks</text>
  <text x="104" y="158" font-family="Arial, Helvetica, sans-serif" font-size="18" fill="#667085">Three-statement linkage and formula integrity review</text>
  <rect x="104" y="202" width="388" height="600" rx="14" fill="#f8fafc" stroke="#d9dee8"/>
  <text x="134" y="246" font-family="Arial, Helvetica, sans-serif" font-size="22" font-weight="700" fill="#172033">Required checks</text>
  <g font-family="Arial, Helvetica, sans-serif" font-size="17">
    <circle cx="136" cy="300" r="12" fill="#10b981"/><text x="132" y="306" fill="#ffffff" font-size="15" font-weight="700">✓</text><text x="164" y="306" fill="#172033">Balance sheet balances</text>
    <circle cx="136" cy="356" r="12" fill="#10b981"/><text x="132" y="362" fill="#ffffff" font-size="15" font-weight="700">✓</text><text x="164" y="362" fill="#172033">Cash roll-forward ties</text>
    <circle cx="136" cy="412" r="12" fill="#10b981"/><text x="132" y="418" fill="#ffffff" font-size="15" font-weight="700">✓</text><text x="164" y="418" fill="#172033">Net income flows to CF</text>
    <circle cx="136" cy="468" r="12" fill="#10b981"/><text x="132" y="474" fill="#ffffff" font-size="15" font-weight="700">✓</text><text x="164" y="474" fill="#172033">PP&amp;E and depreciation tie</text>
    <circle cx="136" cy="524" r="12" fill="#f59e0b"/><text x="132" y="530" fill="#ffffff" font-size="15" font-weight="700">!</text><text x="164" y="530" fill="#172033">Debt schedule reviewed</text>
    <circle cx="136" cy="580" r="12" fill="#10b981"/><text x="132" y="586" fill="#ffffff" font-size="15" font-weight="700">✓</text><text x="164" y="586" fill="#172033">Working capital movements tie</text>
    <circle cx="136" cy="636" r="12" fill="#10b981"/><text x="132" y="642" fill="#ffffff" font-size="15" font-weight="700">✓</text><text x="164" y="642" fill="#172033">Formula direction consistent</text>
  </g>
  <rect x="528" y="202" width="784" height="600" rx="14" fill="#ffffff" stroke="#d9dee8"/>
  <rect x="528" y="202" width="784" height="56" rx="14" fill="#172033"/>
  <text x="560" y="238" font-family="Arial, Helvetica, sans-serif" font-size="18" font-weight="700" fill="#ffffff">Audit report</text>
  <g font-family="Arial, Helvetica, sans-serif" font-size="16">
    <text x="560" y="300" fill="#667085">Check</text><text x="888" y="300" fill="#667085">Result</text><text x="1040" y="300" fill="#667085">Action</text>
    <line x1="560" y1="320" x2="1268" y2="320" stroke="#e4e7ec"/>
    <text x="560" y="360" fill="#172033">Balance Sheet</text><text x="888" y="360" fill="#047857">$0 variance</text><text x="1040" y="360" fill="#667085">No change</text>
    <text x="560" y="412" fill="#172033">Cash tie</text><text x="888" y="412" fill="#047857">Clean</text><text x="1040" y="412" fill="#667085">No change</text>
    <text x="560" y="464" fill="#172033">Net income tie</text><text x="888" y="464" fill="#047857">Clean</text><text x="1040" y="464" fill="#667085">No change</text>
    <text x="560" y="516" fill="#172033">Debt interest base</text><text x="888" y="516" fill="#b45309">Review</text><text x="1040" y="516" fill="#667085">Use prior debt row</text>
    <text x="560" y="568" fill="#172033">Working capital</text><text x="888" y="568" fill="#047857">Clean</text><text x="1040" y="568" fill="#667085">No change</text>
    <text x="560" y="620" fill="#172033">Hidden hardcodes</text><text x="888" y="620" fill="#047857">None</text><text x="1040" y="620" fill="#667085">No change</text>
    <text x="560" y="672" fill="#172033">Scenario drivers</text><text x="888" y="672" fill="#047857">Assumptions tab</text><text x="1040" y="672" fill="#667085">Documented</text>
  </g>
  <rect x="104" y="838" width="1208" height="34" rx="17" fill="#ecfdf5"/>
  <text x="132" y="861" font-family="Arial, Helvetica, sans-serif" font-size="16" font-weight="700" fill="#047857">Output: clean workbook + concise issue list, no silent plug rows.</text>
</svg>
