<svg xmlns="http://www.w3.org/2000/svg" width="1440" height="960" viewBox="0 0 1440 960">
  <rect width="1440" height="960" fill="#f5f7fb"/>
  <rect x="56" y="48" width="1328" height="864" rx="18" fill="#ffffff" stroke="#d9dee8"/>
  <text x="96" y="112" font-family="Arial, Helvetica, sans-serif" font-size="34" font-weight="700" fill="#172033">Kelly Finance</text>
  <text x="96" y="148" font-family="Arial, Helvetica, sans-serif" font-size="18" fill="#667085">Three-statement model builder</text>
  <rect x="1038" y="84" width="286" height="52" rx="10" fill="#102a43"/>
  <text x="1070" y="118" font-family="Arial, Helvetica, sans-serif" font-size="18" font-weight="700" fill="#ffffff">Base case · USD · 2026-2030</text>
  <rect x="96" y="184" width="292" height="124" rx="12" fill="#ecfdf5" stroke="#b7ebcf"/>
  <text x="122" y="224" font-family="Arial, Helvetica, sans-serif" font-size="16" fill="#157347">Revenue</text>
  <text x="122" y="266" font-family="Arial, Helvetica, sans-serif" font-size="34" font-weight="700" fill="#064e3b">$1.0M</text>
  <text x="122" y="290" font-family="Arial, Helvetica, sans-serif" font-size="14" fill="#157347">25% first-year growth</text>
  <rect x="416" y="184" width="292" height="124" rx="12" fill="#eff6ff" stroke="#bfdbfe"/>
  <text x="442" y="224" font-family="Arial, Helvetica, sans-serif" font-size="16" fill="#1d4ed8">Gross margin</text>
  <text x="442" y="266" font-family="Arial, Helvetica, sans-serif" font-size="34" font-weight="700" fill="#1e3a8a">70.0%</text>
  <text x="442" y="290" font-family="Arial, Helvetica, sans-serif" font-size="14" fill="#1d4ed8">Driver row in Assumptions</text>
  <rect x="736" y="184" width="292" height="124" rx="12" fill="#fff7ed" stroke="#fed7aa"/>
  <text x="762" y="224" font-family="Arial, Helvetica, sans-serif" font-size="16" fill="#c2410c">Ending cash</text>
  <text x="762" y="266" font-family="Arial, Helvetica, sans-serif" font-size="34" font-weight="700" fill="#7c2d12">$318K</text>
  <text x="762" y="290" font-family="Arial, Helvetica, sans-serif" font-size="14" fill="#c2410c">Cash flow ties to balance sheet</text>
  <rect x="1056" y="184" width="268" height="124" rx="12" fill="#f8fafc" stroke="#d7dee8"/>
  <text x="1082" y="224" font-family="Arial, Helvetica, sans-serif" font-size="16" fill="#475467">Model checks</text>
  <text x="1082" y="266" font-family="Arial, Helvetica, sans-serif" font-size="34" font-weight="700" fill="#172033">Clean</text>
  <text x="1082" y="290" font-family="Arial, Helvetica, sans-serif" font-size="14" fill="#667085">BS, cash, NI, debt ties</text>
  <rect x="96" y="354" width="1228" height="456" rx="12" fill="#ffffff" stroke="#d9dee8"/>
  <rect x="96" y="354" width="1228" height="54" rx="12" fill="#172033"/>
  <text x="124" y="389" font-family="Arial, Helvetica, sans-serif" font-size="18" font-weight="700" fill="#ffffff">Workbook preview</text>
  <text x="496" y="389" font-family="Arial, Helvetica, sans-serif" font-size="15" fill="#d7dee8">2026</text>
  <text x="646" y="389" font-family="Arial, Helvetica, sans-serif" font-size="15" fill="#d7dee8">2027</text>
  <text x="796" y="389" font-family="Arial, Helvetica, sans-serif" font-size="15" fill="#d7dee8">2028</text>
  <text x="946" y="389" font-family="Arial, Helvetica, sans-serif" font-size="15" fill="#d7dee8">2029</text>
  <text x="1096" y="389" font-family="Arial, Helvetica, sans-serif" font-size="15" fill="#d7dee8">2030</text>
  <g font-family="Arial, Helvetica, sans-serif" font-size="15">
    <rect x="96" y="408" width="1228" height="44" fill="#f8fafc"/>
    <text x="124" y="436" font-weight="700" fill="#172033">Income Statement</text>
    <text x="496" y="436" fill="#172033">$1,000,000</text><text x="646" y="436" fill="#172033">$1,200,000</text><text x="796" y="436" fill="#172033">$1,440,000</text><text x="946" y="436" fill="#172033">$1,728,000</text><text x="1096" y="436" fill="#172033">$2,073,600</text>
    <text x="150" y="482" fill="#667085">Gross profit</text>
    <text x="496" y="482" fill="#172033">$700,000</text><text x="646" y="482" fill="#172033">$840,000</text><text x="796" y="482" fill="#172033">$1,008,000</text><text x="946" y="482" fill="#172033">$1,209,600</text><text x="1096" y="482" fill="#172033">$1,451,520</text>
    <text x="150" y="528" fill="#667085">EBITDA</text>
    <text x="496" y="528" fill="#172033">$250,000</text><text x="646" y="528" fill="#172033">$300,000</text><text x="796" y="528" fill="#172033">$360,000</text><text x="946" y="528" fill="#172033">$432,000</text><text x="1096" y="528" fill="#172033">$518,400</text>
    <rect x="96" y="552" width="1228" height="44" fill="#f8fafc"/>
    <text x="124" y="580" font-weight="700" fill="#172033">Balance Sheet</text>
    <text x="496" y="580" fill="#172033">$318,250</text><text x="646" y="580" fill="#172033">$475,900</text><text x="796" y="580" fill="#172033">$674,480</text><text x="946" y="580" fill="#172033">$924,180</text><text x="1096" y="580" fill="#172033">$1,238,320</text>
    <text x="150" y="626" fill="#667085">Total assets</text>
    <text x="496" y="626" fill="#172033">$844,000</text><text x="646" y="626" fill="#172033">$1,053,500</text><text x="796" y="626" fill="#172033">$1,311,700</text><text x="946" y="626" fill="#172033">$1,629,900</text><text x="1096" y="626" fill="#172033">$2,022,400</text>
    <text x="150" y="672" fill="#667085">Balance check</text>
    <text x="496" y="672" fill="#047857">$0</text><text x="646" y="672" fill="#047857">$0</text><text x="796" y="672" fill="#047857">$0</text><text x="946" y="672" fill="#047857">$0</text><text x="1096" y="672" fill="#047857">$0</text>
    <rect x="96" y="696" width="1228" height="44" fill="#f8fafc"/>
    <text x="124" y="724" font-weight="700" fill="#172033">Cash Flow</text>
    <text x="496" y="724" fill="#172033">$118,250</text><text x="646" y="724" fill="#172033">$157,650</text><text x="796" y="724" fill="#172033">$198,580</text><text x="946" y="724" fill="#172033">$249,700</text><text x="1096" y="724" fill="#172033">$314,140</text>
    <text x="150" y="770" fill="#667085">Free cash flow</text>
    <text x="496" y="770" fill="#172033">$58,250</text><text x="646" y="770" fill="#172033">$85,650</text><text x="796" y="770" fill="#172033">$112,180</text><text x="946" y="770" fill="#172033">$146,020</text><text x="1096" y="770" fill="#172033">$189,724</text>
  </g>
  <text x="96" y="858" font-family="Arial, Helvetica, sans-serif" font-size="18" font-weight="700" fill="#172033">Generated workbook tabs</text>
  <text x="96" y="888" font-family="Arial, Helvetica, sans-serif" font-size="15" fill="#667085">Assumptions · Income Statement · Balance Sheet · Cash Flow · Checks</text>
</svg>
